HIERARCHY
ROOT pelvis
{
  OFFSET 0 100 0
  CHANNELS 6 Xposition Yposition Zposition Zrotation Xrotation Yrotation
  JOINT pelvis_right_femur
  {
    OFFSET -10.78128 -3.44521 -0.5502486
    CHANNELS 3 Zrotation Xrotation Yrotation
    JOINT right_femur_tibia
    {
      OFFSET -0.8047443 -44.0398 -0.1307829
      CHANNELS 3 Zrotation Xrotation Yrotation
      JOINT right_tibia_foot
      {
        OFFSET 3.006224 -47.83518 -5
        CHANNELS 3 Zrotation Xrotation Yrotation
        End Site
        {
          OFFSET 0 -5 15
        }
      }
    }
  }
  JOINT pelvis_left_femur
  {
    OFFSET 10.78128 -3.44521 -0.5502486
    CHANNELS 3 Zrotation Xrotation Yrotation
    JOINT left_femur_tibia
    {
      OFFSET 0.8047443 -44.0398 -0.1307829
      CHANNELS 3 Zrotation Xrotation Yrotation
      JOINT left_tibia_foot
      {
        OFFSET -4.370144 -48.10324 -4.275266
        CHANNELS 3 Zrotation Xrotation Yrotation
        End Site
        {
          OFFSET 0 -5 15
        }
      }
    }
  }
  JOINT pelvis_spine1
  {
    OFFSET 0 6.468898 -3.129235
    CHANNELS 3 Zrotation Xrotation Yrotation
    JOINT spine1
    {
      OFFSET 0 23.15396 4.99043
      CHANNELS 3 Zrotation Xrotation Yrotation
      JOINT spine2
      {
        OFFSET 0 20.79997 -5.064912
        CHANNELS 3 Zrotation Xrotation Yrotation
        JOINT neck
        {
          OFFSET 0 14.38658 9.616178
          CHANNELS 3 Zrotation Xrotation Yrotation
          End Site
          {
            OFFSET 0 20 0
          }
        }
      }
      JOINT right_manubrium
      {
        OFFSET -5.722621 16.35077 3.967754
        CHANNELS 3 Zrotation Xrotation Yrotation
        JOINT right_clavicle
        {
          OFFSET -13.16364 1.694482 -4.693211
          CHANNELS 3 Zrotation Xrotation Yrotation
          JOINT right_humerus
          {
            OFFSET -28.5034 -0.3100689 -2.792744
            CHANNELS 3 Zrotation Xrotation Yrotation
            JOINT right_radius
            {
              OFFSET -25.15693 0.02248979 -1.271978
              CHANNELS 3 Zrotation Xrotation Yrotation
              End Site
              {
                OFFSET -15 0 0
              }
            }
          }
        }
      }
      JOINT left_manubrium
      {
        OFFSET 5.722621 16.35077 3.967754
        CHANNELS 3 Zrotation Xrotation Yrotation
        JOINT left_clavicle
        {
          OFFSET 13.16364 1.694482 -4.693211
          CHANNELS 3 Zrotation Xrotation Yrotation
          JOINT left_humerus
          {
            OFFSET 29.39168 -1.063119 -2.237045
            CHANNELS 3 Zrotation Xrotation Yrotation
            JOINT left_radius
            {
              OFFSET 24.59957 -0.9528479 0.9047498
              CHANNELS 3 Zrotation Xrotation Yrotation
              End Site
              {
                OFFSET 15 -0 -0
              }
            }
          }
        }
      }
    }
  }
}
MOTION
Frames: 19
Frame Time: 0.0416666666667
0 103.5113 0 0.8451474 1.062152 0.7981525 1.939724 -22.85102 8.400506 -0 36.60481 -0 2.722575 -14.25161 -6.161861 -6.546444 10.84575 -19.4651 0 -1.843685 0 -2.545507 -23.38994 19.40707 -4.362699 0.03036277 3.389057 2.202258 5.265636 -7.217014 1.603808 21.90683 8.418291 2.974828 -21.90273 10.53704 7.686828 -15.07652 9.958709 81.84204 38.82039 -16.3859 -0 0 15.27193 -12.2471 12.32415 8.471496 5.233406 -15.92689 -0.3801911 -89.95449 37.04895 15.82093 0 0 -21.7943 -6.090755 9.291244 23.09383
0.5032813 102.5108 3.273037 0.9037843 1.065353 1.655136 1.693567 -22.29893 8.533518 -0 37.99551 -0 3.04376 -14.31927 -6.16439 -6.662795 10.47992 -19.65844 0 -2.899112 0 -2.536351 -23.52599 19.60712 -4.485265 0.055356 3.430551 2.137895 5.159514 -7.10819 1.626175 21.93714 8.458886 2.969379 -21.83656 10.60777 7.817716 -15.09352 9.911995 81.43458 38.97902 -15.88886 -0 0 15.58716 -12.34656 12.33058 8.626139 5.155667 -15.61119 -0.2827248 -90.22448 37.38529 16.17657 0 0 -21.33041 -6.450179 9.092056 23.60639
0.9797389 101.4875 6.662498 0.7564597 0.775508 2.431865 2.081185 -23.16799 7.799633 -0 35.26773 -0 1.897574 -13.28892 -6.039877 -6.404942 11.29164 -18.98785 0 -0.6048916 0 -2.211908 -23.03649 19.20684 -4.169977 -0.08937744 3.298494 2.193481 5.672684 -7.3198 1.567725 21.90744 8.29215 2.990944 -21.89012 10.33798 7.240258 -15.25823 10.06071 82.70386 38.00699 -17.02295 -0 0 14.80295 -12.50302 12.17259 8.379384 5.382467 -16.5638 -0.7324007 -89.49029 35.8325 15.37616 0 0 -22.07411 -5.000637 9.859359 21.52348
1.440352 100.4296 10.0539 0.6193037 0.8466479 3.136532 2.444049 -24.14983 7.502704 -0 32.93084 -0 1.216679 -13.16845 -5.924469 -6.219893 11.91126 -18.78157 -0 0.2491573 -0 -1.94775 -22.93599 19.02654 -3.990015 -0.1878723 3.221741 2.308066 5.885046 -7.514575 1.509092 21.83755 8.230049 3.017446 -22.07719 10.21143 6.983737 -15.3766 10.15399 83.36245 37.70945 -17.78224 -0 0 14.40699 -12.28933 12.07063 8.12923 5.554364 -17.14944 -0.9095567 -89.1687 35.14173 14.99579 0 0 -22.77275 -4.221068 10.33153 20.42395
1.86979 99.33191 13.48256 0.4741666 0.8389975 3.76404 2.851204 -25.15262 7.159074 -0 30.36408 -0 0.4792357 -12.90834 -5.839994 -6.012183 12.59292 -18.43816 -0 1.795966 -0 -1.778329 -22.70932 18.73079 -3.764666 -0.2758686 3.136528 2.420028 6.143522 -7.720219 1.455591 21.7774 8.14396 3.036426 -22.22283 10.05641 6.67529 -15.44877 10.25568 84.14936 37.28524 -18.65708 -0 0 13.86805 -12.14118 11.99291 7.859858 5.723884 -17.8086 -1.132627 -88.74152 34.31538 14.46193 0 0 -23.55907 -3.339347 10.789 19.18629
2.264675 98.21261 16.95817 0.3385342 0.8375622 4.315609 3.250981 -26.08238 6.907326 -0 27.96667 -0 -0.1230712 -12.74153 -5.801856 -5.822315 13.2135 -18.10445 -0 3.51338 -0 -1.733719 -22.47266 18.40732 -3.551859 -0.3329321 3.064796 2.528711 6.349784 -7.908264 1.413411 21.72498 8.068027 3.047185 -22.34036 9.923896 6.423806 -15.45646 10.34182 84.84003 36.93978 -19.46621 -0 0 13.33906 -11.99195 11.96013 7.602566 5.860356 -18.37972 -1.3146 -88.34307 33.64692 13.92579 0 0 -24.32789 -2.620336 11.12533 18.18465
2.621387 97.0976 20.51963 0.2205524 0.7587089 4.791653 3.636051 -26.85748 6.681084 -0 25.76678 -0 -0.634211 -12.48979 -5.822204 -5.645957 13.77767 -17.67864 -0 5.776614 -0 -1.848228 -22.13173 18.001 -3.328757 -0.3566247 3.000678 2.615876 6.551263 -8.070869 1.388105 21.69426 7.982642 3.045186 -22.38344 9.791134 6.180076 -15.38596 10.41787 85.52058 36.54895 -20.24674 -0 0 12.74402 -11.93441 11.97851 7.369184 5.959579 -18.90271 -1.501162 -87.90389 33.00392 13.3061 0 0 -25.06361 -1.983742 11.3529 17.29913
2.939254 96.02303 24.21162 0.1277496 0.5931104 5.193622 3.995369 -27.42296 6.491786 -0 23.85802 -0 -1.018754 -12.15081 -5.912147 -5.490129 14.25358 -17.15409 -0 8.631414 -0 -2.150217 -21.67314 17.50965 -3.099457 -0.3389751 2.948234 2.675015 6.739873 -8.198046 1.383781 21.68993 7.888567 3.028141 -22.33681 9.662308 5.954061 -15.22332 10.48013 86.16714 36.12099 -20.97047 -0 0 12.08889 -11.98569 12.05948 7.170725 6.01127 -19.3512 -1.687104 -87.42859 32.41377 12.6045 0 0 -25.73983 -1.473742 11.44829 16.58794
3.219604 95.03405 28.0926 0.06817366 0.3060695 5.522873 4.320262 -27.7041 6.32588 -0 22.3016 -0 -1.264423 -11.67073 -6.083489 -5.356635 14.60984 -16.48811 -0 12.25454 -0 -2.673705 -21.04863 16.91439 -2.857846 -0.2725588 2.91009 2.69552 6.925437 -8.279398 1.405425 21.71974 7.778984 2.992571 -22.17353 9.532248 5.736412 -14.95412 10.5283 86.7876 35.62088 -21.62591 -0 0 11.35385 -12.18966 12.21529 7.019928 6.005607 -19.71884 -1.88331 -86.9012 31.85155 11.79907 0 0 -26.33267 -1.096567 11.39541 16.05548
3.466281 94.18631 32.23178 0.04952216 -0.1285232 5.780701 4.601785 -27.61011 6.181305 -0 21.16152 -0 -1.345501 -11.02702 -6.348353 -5.245944 14.79079 -15.64697 -0 16.78925 -0 -3.453124 -20.21205 16.20774 -2.600629 -0.1482525 2.892931 2.667409 7.110138 -8.302034 1.458195 21.79016 7.648734 2.934847 -21.8693 9.398785 5.525604 -14.56585 10.56133 87.36985 35.03183 -22.18527 -0 0 10.53591 -12.58354 12.46031 6.93297 5.930584 -19.98712 -2.092787 -86.32003 31.31422 10.88655 0 0 -26.81048 -0.8784661 11.17054 15.73494
3.686005 93.54583 36.70848 0.07919901 -0.7397504 5.967674 4.830359 -27.01403 6.054311 -0 20.48822 -0 -1.23729 -10.20743 -6.716151 -5.152226 14.70515 -14.59092 -0 22.38204 -0 -4.518912 -19.10347 15.39191 -2.32305 0.04320342 2.90824 2.578857 7.298064 -8.249314 1.547372 21.9073 7.49031 2.850856 -21.3984 9.257657 5.317388 -14.05387 10.57956 87.89398 34.33394 -22.60616 -0 0 9.644692 -13.21159 12.80884 6.932819 5.772843 -20.13452 -2.318071 -85.69324 30.79311 9.882105 0 0 -27.12769 -0.8438101 10.74844 15.65763
3.889 93.18616 41.6055 0.1618042 -1.546557 6.082627 4.997248 -25.74673 5.945749 -0 20.29506 -0 -0.9187918 -9.243743 -7.185548 -5.056902 14.20393 -13.28942 -0 29.09851 -0 -5.881985 -17.66065 14.4954 -2.021661 0.3086661 2.975962 2.418447 7.491051 -8.100764 1.676567 22.07351 7.295335 2.736971 -20.74327 9.103728 5.108203 -13.43426 10.58552 88.31823 33.51967 -22.81975 -0 0 8.725821 -14.1129 13.2702 7.050777 5.519867 -20.13263 -2.554885 -85.05514 30.28596 8.847249 0 0 -27.21823 -1.018251 10.10739 15.85865
4.089614 93.17747 46.99354 0.2943142 -2.54053 6.120488 5.097868 -23.59974 5.860992 -0 20.50231 -0 -0.3927011 -8.248037 -7.72644 -4.916793 13.05907 -11.74035 -0 36.79572 -0 -7.503941 -15.83852 13.59272 -1.69639 0.6459055 3.128109 2.179146 7.688533 -7.834452 1.84392 22.28188 7.055537 2.592021 -19.91105 8.929907 4.893562 -12.76778 10.58645 88.57045 32.60517 -22.72258 -0 0 7.890267 -15.30369 13.83738 7.325556 5.166227 -19.95125 -2.78777 -84.4854 29.7974 7.927859 0 0 -26.99059 -1.414536 9.246795 16.35839
4.306618 93.56077 52.90165 0.4577873 -3.65293 6.068585 5.1373 -20.36855 5.810606 -0 20.8539 -0 0.2807495 -7.46408 -8.249971 -4.652226 10.96424 -10.00676 -0 44.89765 -0 -9.251159 -13.65751 12.82532 -1.355591 1.031858 3.410031 1.867218 7.885372 -7.435108 2.035288 22.50708 6.767005 2.421131 -18.96374 8.727289 4.66815 -12.19325 10.59706 88.54014 31.65217 -22.1765 -0 0 7.351989 -16.73859 14.46808 7.793513 4.725511 -19.57055 -2.983287 -84.133 29.34419 7.400943 0 0 -26.33412 -2.011054 8.219925 17.13343
4.562529 94.30438 59.27778 0.6102321 -4.723926 5.90292 5.133747 -15.96451 5.802716 -0 20.8647 -0 0.944749 -7.275697 -8.581919 -4.154697 7.610949 -8.250551 -0 52.18113 -0 -10.85343 -11.27176 12.39613 -1.021868 1.409076 3.870837 1.51319 8.072587 -6.909653 2.217034 22.69806 6.437313 2.240377 -18.04828 8.486508 4.42508 -11.94719 10.64038 88.09299 30.77867 -21.03768 -0 0 7.433876 -18.26526 15.06545 8.464719 4.245249 -19.00612 -3.090622 -84.21965 28.94692 7.681027 0 0 -25.15057 -2.721001 7.175944 18.07082
4.881205 95.26214 65.96516 0.6948405 -5.522914 5.591447 5.111392 -10.58216 5.825349 -0 19.95871 -0 1.358693 -8.071046 -8.4959 -3.34676 2.893508 -6.71475 -0 56.90055 -0 -11.93147 -8.999089 12.49938 -0.7332496 1.686855 4.532753 1.172862 8.243764 -6.302907 2.338761 22.78775 6.091985 2.077437 -17.38202 8.203069 4.15668 -12.30907 10.74042 87.13374 30.12418 -19.23448 -0 0 8.464966 -19.62473 15.48572 9.292742 3.809537 -18.33429 -3.062643 -84.9741 28.59453 9.187231 0 0 -23.41815 -3.379467 6.365739 18.94243
5.283298 96.18598 72.7348 0.6764171 -5.871408 5.113182 5.078719 -4.774661 5.835254 -0 17.90994 -0 1.329196 -9.933368 -7.858693 -2.280475 -2.841692 -5.616054 -0 57.62187 -0 -12.16525 -7.209969 13.19361 -0.5314085 1.780062 5.349107 0.9011937 8.404205 -5.691302 2.358724 22.73302 5.770332 1.961148 -17.14217 7.887306 3.860218 -13.42764 10.9035 85.71002 29.75498 -16.86854 -0 0 10.5405 -20.57149 15.60315 10.17492 3.506444 -17.67924 -2.896966 -86.46942 28.20399 12.02992 0 0 -21.2511 -3.794563 6.03775 19.47245
5.78099 96.82477 79.37317 0.578631 -5.791169 4.48261 5.010226 0.7536191 5.785286 -0 15.23499 -0 0.8777658 -12.43692 -6.77789 -1.158909 -8.808882 -5.02211 -0 54.31917 -0 -11.52753 -6.102128 14.33214 -0.4408558 1.671113 6.200591 0.7117233 8.567049 -5.14308 2.278647 22.55717 5.507111 1.903561 -17.32198 7.570548 3.548389 -15.15057 11.10303 84.05205 29.59901 -14.23108 -0 0 13.34659 -21.05515 15.39939 11.00814 3.369892 -17.13959 -2.653577 -88.48304 27.66547 15.77473 0 0 -18.87657 -3.865177 6.252543 19.51298
6.376051 97.03911 85.75614 0.4679431 -5.488551 3.74998 4.858959 5.512461 5.672466 -0 12.92801 -0 0.228024 -14.8877 -5.539813 -0.2127191 -14.19134 -4.846526 -0 48.43395 -0 -10.3207 -5.603062 15.6507 -0.4589752 1.425361 6.958602 0.571022 8.734818 -4.681993 2.144996 22.33791 5.316559 1.893879 -17.73148 7.294069 3.251356 -17.08915 11.29194 82.4527 29.51322 -11.66468 -0 0 16.32078 -21.24375 14.9765 11.74447 3.358585 -16.72441 -2.413088 -90.59514 26.96703 19.65941 0 0 -16.52468 -3.654923 6.826208 19.1587
